<?xml version="1.0" encoding="utf-8"?>
<!-- Generator: Adobe Illustrator 23.0.6, SVG Export Plug-In . SVG Version: 6.00 Build 0)  -->
<svg version="1.1" id="Layer_1" xmlns="http://www.w3.org/2000/svg" xmlns:xlink="http://www.w3.org/1999/xlink" x="0px" y="0px"
	 width="28px" height="24px" viewBox="0 0 28 24" style="enable-background:new 0 0 28 24;" xml:space="preserve">
<style type="text/css">
	.st0{fill-rule:evenodd;clip-rule:evenodd;}
</style>
<g>
	<g transform="translate(-259 -1199)">
		<g transform="translate(82 813)">
			<g transform="translate(16 384)">
				<g transform="translate(161 2.25)">
					<path class="st0" d="M14.5,16.3c1.2,0,1.9,0.2,2.5,0.7c0.6,0.5,1,1.2,1,2.3c0,1.2-0.4,2-1,2.5c-0.7,0.5-1.6,0.8-2.9,0.8
						c-0.7,0-1.2,0-1.6-0.1v-6.1C13.2,16.4,13.8,16.3,14.5,16.3z M8.4,16.4v1.1H6.1v1.4h2.2v1.1H6.1v2.5H4.7v-6.2H8.4z M11.1,16.4
						v6.2H9.7v-6.2H11.1z M23.2,16.4v1.1h-2.4v1.3H23V20h-2.3v1.5h2.5v1.1h-3.9v-6.2H23.2z M14.7,17.4c-0.3,0-0.5,0-0.6,0.1v4.1
						c0.1,0,0.3,0,0.5,0c1.3,0,2.1-0.7,2.1-2.2C16.6,18.1,15.9,17.4,14.7,17.4z M14,0c7.7,0,14,4.7,14,10.5c0,2.7-1.3,5.1-3.5,6.9
						l0-2.3h-21l0,2.3C1.3,15.6,0,13.2,0,10.5C0,4.9,5.9,0.3,13.3,0l-0.6,0.3l0.2,1.4l0,0.1c-1.1,0.3-1.7,0.7-1.7,0.7l0.1,0.7
						c0,0-2.4,2.5-2.7,3c-0.3,0.4,1,1.6,1.5,1.7c0.5,0.1,1.4-0.8,1.4-0.8l1.9,0.1c-3,1.6-3.3,3.7-3.3,4.8s0.2,1.9,0.2,1.9h8.7
						c0,0,0.2-0.1,0.2-0.8c0-0.7-1-1.4-1-3.1c0-1.9,0.7-1.8,0.7-4.8c0-3-1.7-3.9-4.1-3.9c-0.4,0-0.8,0-1.1,0.1l0-0.1L13.4,0
						C13.6,0,13.8,0,14,0z"/>
				</g>
			</g>
		</g>
	</g>
</g>
</svg>
